<svg width="361" height="338" viewBox="0 0 361 338" fill="none" xmlns="http://www.w3.org/2000/svg">
<mask id="mask0_74_137" style="mask-type:luminance" maskUnits="userSpaceOnUse" x="-7" y="0" width="368" height="338">
<path d="M229.769 -4.00017e-05L-7 126.936L124.231 338L361 211.064L229.769 -4.00017e-05Z" fill="white"/>
</mask>
<g mask="url(#mask0_74_137)">
<path fill-rule="evenodd" clip-rule="evenodd" d="M190.97 201.494C190.745 203.334 190.38 204.747 190.092 206.474C189.972 207.286 189.944 207.99 190.05 208.797C188.405 209.192 188.342 208.158 187.709 206.779C187.344 206.001 184.603 200.139 184.547 199.852C184.245 197.824 186.901 197.954 188.293 197.732C191.68 197.242 191.322 198.574 190.97 201.494ZM119.206 207.729C118.862 210.213 118.524 214.677 116.838 216.554C115.102 218.454 113.261 219.593 111.075 220.93C108.735 222.394 110.014 223.803 110.668 226.123C111.49 229.386 113.106 232.147 113.95 235.604C114.231 236.799 114.976 237.897 115.32 239.357C116.219 242.898 116.198 244.611 115.749 248.182C115.517 249.913 115.636 251.944 115.432 253.813C115.25 255.461 114.645 260.984 116.381 262.035C118.215 263.145 118.974 257.056 119.487 259.138C120.035 261.312 119.115 261.581 120.78 264.165C122.376 266.637 125.503 269.824 128.279 271.18C130.731 272.278 133.212 273.078 135.664 274.176C136.936 274.672 138.391 274.904 138.004 273.091C137.653 271.522 136.213 270.949 135.285 269.461C134.856 268.774 134.638 268.424 134.097 267.743C131.174 264.335 129.937 262.698 128.398 258.583C127.344 255.879 127.4 256.876 127.527 253.591C127.674 248.594 127.611 247.488 125.475 242.797C122.699 236.676 123.872 233.428 125.313 227.25C126.325 222.741 126.599 221.53 130.204 218.533C131.216 217.672 132.087 216.885 132.987 215.972C135.025 213.758 136.817 211.244 137.723 208.461C138.525 206.161 140.633 204.545 141.617 202.09C142.882 198.888 143.402 200.926 144.175 196.322C144.343 195.486 144.905 190.901 145.77 190.644C147.225 190.237 153.781 190.799 155.65 190.863C159.136 190.976 161.04 192.744 163.95 194.23C166.002 195.227 168.391 196.88 170.513 197.351C175.573 198.545 171.968 199.788 172.959 202.192C173.711 203.942 177.428 204.079 179.719 206.927C181.813 209.451 183.542 213.07 183.655 216.284C183.746 220.572 185.454 222.929 188.047 226.457C189.515 228.458 189.333 231.825 189.473 234.146C189.684 237.681 190.021 240.976 190.324 244.499C190.78 249.079 189.754 250.469 188.159 254.487C187.583 255.861 186.29 257.527 186.037 258.411C185.383 261.007 189.094 259.389 188.756 260.489C187.991 262.655 184.779 264.34 187.906 266.721C189.312 267.783 191.666 267.922 193.458 268.404C196.894 269.346 195.875 268.714 199.368 270.487C200.795 271.222 201.961 271.716 203.437 272.534C206.74 274.355 208.932 273.495 206.416 270.449C203.83 267.386 203.795 266.133 200.225 263.428C198.04 261.756 198.244 260.041 198.272 257.632C198.222 252.515 199.958 252.76 200.57 249.702C201.286 245.617 200.64 246.769 199.853 242.758C199.459 240.669 197.604 232.554 197.864 230.973C197.984 230.161 199.136 229.17 199.579 227.586C200.71 223.819 200.858 223.855 200.085 219.872C199.635 217.591 198.581 216.712 198.103 214.839C197.639 212.993 193.753 202.604 197.583 202.473C202.024 202.281 205.39 207.339 208.525 209.72C212.088 212.259 214.617 213.034 218.328 214.956C222.003 216.835 222.348 218.579 223.901 221.822C224.941 223.941 225.376 226.753 226.438 229.196C228.63 234.116 228.194 233.77 228.454 239.036C228.623 241.506 229.101 243.46 229.157 246.104C229.192 249.359 228.925 252.23 228.743 255.431C228.686 257.182 228.925 260.215 231.23 257.688C232.587 256.272 234.47 253.913 234.751 257.56C235.032 261.207 236.192 261.876 238.975 264.349C240.921 266.092 246.199 272.032 249.101 271.016C251.258 270.347 247.077 264.456 246.431 263.135C244.877 260.174 244.414 258.437 242.439 255.42C239.256 250.655 238.827 248.156 238.574 242.607C238.37 238.434 238.651 237.794 237.414 233.598C237.021 232.423 237.225 231.549 236.845 230.199C235.123 224.688 236.058 221.141 233.184 215.613C232.312 213.927 231.645 212.042 230.527 210.508C229.241 208.729 228.412 207.303 227.007 205.494C224.322 202.015 224.133 199.763 220.274 196.312C216.936 193.333 213.683 190.85 219.066 187.422C222.432 185.243 224.245 185.565 226.775 181.851C227.246 181.056 227.604 180.34 227.955 179.552C230.52 173.784 247.175 147.35 252.341 143.028C255.461 140.55 256.107 139.942 260.359 139.702C263.43 139.497 264.175 141.994 266.065 142.645C269.495 143.856 272.636 143.576 276.15 143.187C278.307 143.003 278.869 141.783 278.082 139.904C276.009 135.82 269.509 138.293 266.03 134.437C263.521 131.703 267.246 131.165 270.183 132.694C273.936 134.591 275.826 137.171 280.542 135.709C283.493 134.669 285.102 132.253 284.554 129.331C284.041 126.669 280.696 125.075 278.173 124.67C277.147 124.472 276.775 124.355 275.833 123.942C271.511 122.033 270.956 123.137 267.963 122.068C264.849 121.006 263.809 117.335 258.546 117.109C254.252 116.888 254.892 120.565 248.237 116.913C246.332 115.784 244.709 115.271 243.788 113.241C245.707 111.032 247.175 111.742 250.008 111.515C256.128 111.019 256.88 111.943 261.87 115.121C264.048 116.517 267.084 118.758 269.762 119.025C271.842 119.259 274.906 119.316 276.979 118.898C280.598 118.025 284.575 115.087 285.454 111.457L285.644 110.38C285.7 108.629 285.608 106.117 284.21 104.773C282.573 103.238 280.443 101.818 278.061 102.122C277.527 105.306 280.767 109.871 275.763 111.806C271.519 113.504 268.089 110.349 265.587 107.52C259.01 100.237 255.51 100.654 246.459 102.571C245.889 102.667 243.191 103.461 242.65 102.853C240.492 100.215 242.847 97.12 246.149 96.489C253.388 95.3959 257.239 99.5938 266.712 96.7611C270.345 95.7281 269.832 95.8357 272.734 93.4213C276.353 90.3582 277.934 87.2116 278.736 82.758C279.305 79.4639 277.913 76.3923 275.362 74.1319C274.126 73.0395 272.622 72.665 272.657 74.7225C272.734 77.7862 272.98 79.6362 270.795 82.3593C263.873 90.8979 246.185 81.2649 240.211 86.4879C238.834 87.6586 237.183 89.4969 236.669 91.2287C236.297 93.4689 234.983 93.7437 232.72 92.9182C227.717 91.1106 234.568 86.2021 226.388 81.7413C223.331 80.1106 219.516 79.2753 216.079 78.4413C212.193 77.4795 206.648 75.1943 208.145 70.4274C209.115 67.2344 214.217 66.9108 211.771 64.6301C209.551 62.6052 204.322 63.5371 202.832 66.636C201.596 69.2273 201.947 73.5446 202.903 76.1757C204.842 81.139 203.662 79.2453 207.386 82.6523C210.211 85.2533 212.432 85.7264 215.847 87.1131C218.201 88.1513 222.664 90.7354 220.816 93.6504C218.7 96.9353 212.762 97.2753 209.754 94.177C208.483 92.8764 208.314 92.7042 207.639 91.2327C206.297 88.6231 206.409 90.5455 205.693 87.1914C205.088 84.5773 204.66 83.8901 203.331 81.5553C201.005 77.4547 196.817 75.5668 192.889 72.9031C189.86 70.8789 185.222 68.073 184.681 64.4546C184.083 60.5497 188.138 57.0853 184.378 56.915C180.865 56.759 178.988 60.2345 178.054 62.8676C177.379 64.7247 177.147 67.2612 178.131 69.0348C179.839 72.139 178.988 73.0637 182.123 76.0028C183.486 77.1969 183.528 77.717 185.531 79.0939C188.342 81.0646 193.071 82.4369 194.955 84.0089C196.929 85.7356 196.691 88.7438 195.355 90.601C193.107 93.6758 185.433 93.5094 182.509 91.0147C180.759 89.4864 179.895 87.1627 179.178 85.0987C178.546 83.081 178.904 83.3733 177.569 81.4157C175.707 78.8779 172.551 76.5489 169.234 76.3466C165.053 76.0249 164.414 76.7414 160.05 74.9502C157.07 73.649 155.636 72.0594 155.545 68.9095C155.376 62.8486 164.87 65.7799 162.593 61.6558C160.499 57.745 152.305 59.0358 149.74 62.7083C146.796 66.8514 147.716 71.8193 150.007 76.0524C150.97 77.8925 152.017 78.9373 153.753 80.1399C156.494 81.9984 159.192 81.3935 161.532 82.8683C164.02 84.3776 166.199 85.1359 167.274 88.152C168.286 93.2745 165.362 95.3274 160.176 95.8658C155.615 96.3258 153.802 94.4027 152.685 90.5109C152.116 88.4025 151.947 86.8312 150.661 84.9584C148.56 82.2307 150.239 82.8271 146.536 80.5282C144.561 79.2877 142.755 78.3859 140.71 77.3888C137.077 75.6876 130.907 73.0669 132.347 68.3327C133.507 64.6066 139.529 65.8647 138.061 63.3994C136.986 61.6747 134.364 61.3034 132.446 61.8072C125.875 63.5162 123.872 69.827 125.566 75.4631C125.84 76.5503 126.198 77.3144 126.796 78.2821C127.695 79.7269 129.677 80.0675 131.125 81.1051C131.546 81.4228 134.582 82.6203 135.425 83.081C135.742 83.2304 137.787 84.2282 137.99 84.5505C139.143 87.149 138.693 92.5691 134.751 91.2627C132.052 90.4098 131.343 86.1336 129.185 83.96C126.451 81.5716 124.962 80.5582 121.153 80.2815C112.066 79.8587 108.082 79.0397 106.486 69.7794C106.072 67.2716 106.775 67.7552 106.852 67.3369C107.105 66.4527 101.16 65.5104 101.75 75.7032C102.101 81.5723 106.437 86.6361 112.832 87.489C115.636 87.8577 117.456 87.6854 120.309 88.6238C123.507 90.276 125.938 95.1832 121.631 96.5359C119.445 97.2218 117.119 97.61 114.807 97.8384C109.452 98.4655 103.149 101.995 100.865 106.66C98.7915 110.82 99.2061 115.628 101.054 119.892C102.08 122.28 108.974 124.099 107.126 120.118C105.875 117.365 104.533 116.308 106.114 113.102C109.846 105.529 118.707 107.045 125.917 105.758C127.365 105.526 128.482 105.189 129.642 104.307C130.654 103.446 132.867 100.162 134.203 100.365C135.39 100.532 136.142 101.738 139.361 101.714C141.961 101.702 145.517 100.281 147.182 100.567C148.728 100.751 151.209 103.385 152.727 104.44C154.28 105.479 157.253 107.586 159.08 107.877C164.034 108.701 169.867 108.359 174.048 105.577C174.702 105.172 175.229 104.737 175.833 104.246C179.284 101.272 181.638 105.154 185.081 106.938C188.258 108.395 191.764 108.442 195.032 107.27C197.934 106.254 199.34 102.283 201.912 100.851C203.353 100.076 204.772 102.964 205.643 103.823C208.721 106.831 211.715 107.899 216.114 107.375C216.789 107.273 220.464 106.593 220.886 107.005C222.2 108.282 221.118 111.423 226.121 112.389C227.934 112.761 229.459 112.525 231.019 111.577C232.102 110.567 230.991 110.788 232.945 110.542C236.684 110.149 237.927 114.345 236.262 115.778C235.159 116.745 236.079 115.389 233.606 117.897C232.594 118.924 232.228 119.437 231.048 120.183C228.483 118.997 228.026 116.715 225.995 115.449C223.247 113.874 220.043 112.918 216.796 112.392C214.842 112.093 210.19 110.362 208.855 109.151C207.372 107.76 207.52 107.455 205.538 107.397C204.772 113.211 206.515 117.852 209.726 122.825C211.511 125.606 214.744 128.961 218.258 129.768C220.408 130.281 223.31 130.652 221.195 133.393C220.282 134.574 218.743 135.776 217.611 136.868C214.357 140.425 214.28 141.495 211.982 145.291C208.539 151.1 204.357 149.06 200.162 145.25C197.506 142.821 194.126 142.427 190.584 142.027C184.906 141.424 177.358 141.468 172.08 143.585C166.662 145.854 166.346 148.475 159.417 148.225C158.63 148.159 157.92 148.11 157.161 148.087C151.392 147.591 138.553 142.972 122.256 142.226C106.627 141.553 87.4492 144.505 85.3902 154.285C84.3853 158.996 94.3924 154.285 91.476 159.383C89.9792 162.112 88.1941 162.899 87.6811 166.561C87.1471 170.383 87.906 176.614 89.4239 180.251C91.5533 185.428 91.7641 185.468 95.4043 189.779C99.8597 195.003 97.3298 196.077 95.0529 201.489C94.3642 203.035 91.8414 205.305 90.2743 206.088C85.5237 208.524 82.1366 206.918 82.0101 214.315C81.9749 219.103 83.2679 221.832 82.5441 227.252C82.1997 229.737 82.01 230.531 82.0663 233.08C82.1365 241.982 74.5821 247.9 74.5399 250.934C74.4837 254.331 81.2862 251.435 79.0374 254.677C77.386 257.059 75.1442 258.951 77.1892 262.138C78.6369 264.467 84.4415 268.856 87.1049 270.102C90.9489 271.893 94.7789 271.559 92.9588 266.59C92.0312 264.356 91.3846 263.318 90.6467 260.871C89.705 257.899 88.3417 255.522 89.4801 252.501C91.2862 247.362 91.1948 243.074 90.9067 237.766C90.5343 231.122 91.9328 229.232 93.3523 223.12C94.6735 217.646 94.7437 215.473 100.555 212.826C104.519 210.963 106.936 209.46 110.429 206.897C111.448 206.145 111.743 206.361 113.029 205.297C113.767 204.64 118.546 201.535 119.438 201.486C121.174 201.528 119.403 206.76 119.206 207.729ZM126.789 211.852C124.252 215.458 124.786 211.375 124.87 209.405C124.934 207.763 125.187 206.334 125.306 204.718C125.341 204.324 125.608 201.996 125.763 201.799C126.557 201.429 133.092 200.113 132.762 202.068C132.6 203.07 127.632 210.653 126.789 211.852ZM108.012 201.424C105.327 202.057 104.793 202.942 102.607 203.627C98.9532 204.785 100.752 202.097 101.511 200.308C103.521 195.491 104.73 197.89 108.946 198.791C113.261 199.693 113.444 200.175 108.911 201.222L108.012 201.424ZM215.159 202.757C214.118 203.633 211.989 202.046 210.97 201.413C209.094 200.232 207.386 198.941 205.376 197.717C200.998 194.976 199.986 194.828 204.364 191.789C205.447 191.04 207.836 188.488 208.89 188.727C209.797 188.989 210.513 192.344 210.914 193.272C212.095 196.268 215.784 199.916 215.159 202.757ZM212.579 161.315C213.669 156.186 216.62 152.137 222.882 153.23C229.003 154.286 228.497 162.806 221.209 160.972C218.602 160.274 217.871 160.459 216.817 163.156C216.255 164.637 214.856 171.444 214.062 171.908C211.792 173.39 212.355 162.763 212.509 161.818L212.579 161.315ZM149.923 155.54C149.565 153.863 151.961 154.072 153.282 154C155.004 153.825 159.663 152.823 160.654 154.219C161.813 156.535 159.15 162.787 158.258 165.301C156.044 171.522 154.8 165.23 153.268 162.312C152.277 160.335 150.422 157.536 149.923 155.54ZM167.639 155.468C167.885 154.961 170.858 148.917 171.905 150.991C172.593 152.383 170.647 158.849 170.31 161.159C169.48 167.87 171.799 175.082 178.995 177.972C182.601 179.465 189.445 179.009 192.903 177.268C196.1 175.722 198.532 173.13 199.677 169.934C201.799 162.268 197.766 153.026 187.962 153.94C180.696 154.789 178.251 164.234 183.795 165.917C184.322 166.012 185.419 165.966 185.721 165.522C186.269 164.853 185.798 161.253 188.75 160.96C196.107 160.608 194.329 170.931 183.781 169.087C177.857 168.092 176.388 163.14 177.681 158.275C182.348 146.72 200.05 149.18 204.688 159.376C208.82 168.773 205.18 181.439 194.301 184.914C188.749 186.713 182.165 186.653 176.782 184.301C172.748 182.557 169.818 180.593 167.499 176.956C163.233 170.264 164.828 162.287 167.639 155.468ZM134.097 157.01C130.197 154.388 124.758 152.968 120.302 155.148C117.091 156.666 120.956 157.846 122.516 158.247C127.955 159.501 129.494 159.59 133.233 164.055C136.662 168.371 137.477 173.715 137.969 178.909C138.159 180.958 138.229 186.27 136.248 187.481C134.631 188.462 133.542 182.93 133.226 181.976C132.305 179.104 131.406 177.659 129.6 175.133C127.295 171.88 127.85 171.414 124.083 168.459C119.255 164.895 112.593 163.004 107.175 166.543C104.765 168.155 103.753 170.567 102.888 173.124C101.188 178.917 104.568 184.962 111.736 183.959C113.409 183.701 116.725 182.351 114.231 180.639C112.347 179.35 110.26 178.543 111.104 175.792C112.537 171.318 119.635 172.938 120.169 179.291C120.422 182.743 116.866 186.521 113.31 187.042C111.764 187.294 109.888 187.121 108.286 187.006C105.608 186.891 102.375 184.284 100.928 182.217C98.4682 178.45 97.2806 171.756 98.4402 167.486C100.316 160.421 106.086 155.775 112.643 152.486C118.166 149.638 124.674 149.027 130.808 150.453C134.484 151.325 139.888 153.98 142.537 156.584C143.465 157.526 144.35 158.507 145.236 159.474C148.995 163.779 149.473 166.196 151.624 171.046C152.291 172.561 154.118 175.057 155.074 176.586C155.952 178.097 161.947 186.348 155.418 182.927C149.825 179.978 147.709 172.922 144.146 168.193C140.26 163.075 139.803 161.077 134.097 157.01ZM251.35 128.802C253.086 127.387 257.885 125.674 257.281 129.644C256.684 133.985 237.829 139.754 230.268 135.767C229.642 135.41 229.733 135.195 229.783 134.532C229.825 133.217 236.473 134.31 242.523 133.217C246.515 132.461 250.422 129.506 251.35 128.802ZM234.47 121.62C236.438 120.939 243.837 119.271 245.25 120.928C246.775 122.635 242.376 128.844 240.542 129.025L239.663 129.066C237.864 129.114 233.444 125.012 233.219 123.095C233.247 121.846 233.655 122.056 234.47 121.62ZM223.163 121.21C224.617 122.095 224.807 122.947 224.716 124.548C222.235 125.242 211.575 120.729 211.195 117.827C211.083 117.195 211.083 117.195 211.884 116.825C212.305 116.599 215.405 114.993 216.951 115.546C220.043 116.733 222.327 120.857 223.163 121.21Z" fill="white"/>
</g>
</svg>
