<svg width="204" height="201" viewBox="0 0 204 201" fill="none" xmlns="http://www.w3.org/2000/svg">
<mask id="mask0_74_216" style="mask-type:luminance" maskUnits="userSpaceOnUse" x="0" y="0" width="204" height="201">
<path d="M204 0H0V201H204V0Z" fill="white"/>
</mask>
<g mask="url(#mask0_74_216)">
<path fill-rule="evenodd" clip-rule="evenodd" d="M49.3533 153.261C66.8463 171.48 72.092 161.104 36.3046 184.06C30.6946 187.632 32.1299 186.496 41.9729 189.59C45.6085 190.726 59.5242 193.779 62.4385 191.233C67.8372 186.496 62.1689 187.386 54.5189 183.074C50.774 180.994 51.8232 182.062 58.3657 178.763C93.6432 160.927 84.128 170.139 66.8463 148.867C59.9176 140.284 75.4288 146.951 79.5088 149.606C82.8675 151.837 94.4737 161.365 95.1367 164.061C95.909 167.237 85.505 182.13 83.7419 188.44C90.6123 193.026 97.8907 196.79 105.213 200.979C120.302 193.806 115.172 198.939 96.7833 187.934C98.612 184.676 113.191 160.927 113.074 160.037C112.688 157.052 99.3115 146.444 95.4063 144.131C72.1285 130.251 72.9081 131.278 77.5272 107.994C78.0299 105.406 79.0572 90.0891 85.7163 91.6497C93.4246 93.4566 91.3335 95.5233 91.6614 103.449C91.8727 107.405 93.9127 121.395 89.2936 123.913C86.4376 125.446 85.3301 124.31 89.075 129.635C90.5759 131.716 90.6123 127.718 92.2225 133.166C93.0021 135.631 94.5903 135.712 98.1676 135.206C99.1002 125.022 101.796 127.253 116.28 122.353C141.423 113.811 137.073 112.634 151.288 97.3441C159.535 88.4878 186.354 91.7043 200.546 92.0192C207.861 92.1697 202.739 89.35 192.896 88.5285C187.942 88.1043 164.548 85.9825 163.171 85.7088C152.876 83.7514 159.87 75.6341 160.198 68.4208C160.803 55.9232 156.57 45.4923 147.987 34.5553C143.033 28.2723 113.191 13.0648 112.047 11.1074C111.056 9.46488 116.513 -11.5881 107.967 8.87631C103.836 7.46621 103.406 13.9271 104.127 14.7893C106.495 17.6502 102.867 24.8228 102.029 28.3135C98.5173 43.6308 97.949 57.2369 95.3116 72.0887C94.1095 78.5908 94.0512 85.2161 83.1955 81.7666C79.0572 80.439 66.6351 69.3376 83.6982 67.0653C92.7835 65.8469 90.962 62.8355 85.1917 57.3055C72.0482 44.7259 34.1699 59.1809 38.9639 64.5193C41.1569 66.956 75.1739 77.6467 31.8603 74.7033C18.7533 73.855 11.7663 72.2124 0.757614 78.2898C-1.82881 79.7407 2.91415 85.0244 4.26929 86.9133C16.7133 97.4534 36.5232 95.6465 43.1241 102.436C53.3168 112.962 23.0446 125.788 49.3533 153.261ZM145.947 92.3887C143.303 98.9727 129.445 111.361 120.629 114.564C114.298 116.877 106.648 119.423 99.5445 120.053C98.1093 112.922 97.388 97.3168 104.164 91.8001C111.661 88.7475 138.297 89.6103 145.947 92.3887ZM140.993 85.9278C134.181 86.0783 108.2 86.0103 104.069 81.931C98.0656 76.0588 107.909 31.2157 110.67 22.4412C112.105 17.8966 110.335 19.033 119.034 23.4266C141.328 34.6239 151.732 48.9284 152.432 68.5712C152.606 73.0061 152.759 83.9704 145.168 85.6129L140.993 85.9278ZM36.2099 90.322C42.6942 92.4433 45.6231 93.2649 46.6722 87.3787C47.4518 79.6999 6.33119 78.8372 27.8605 87.2555C30.5416 88.3234 33.3976 89.3361 36.2099 90.322Z" fill="white"/>
</g>
</svg>
