<svg width="219" height="183" viewBox="0 0 219 183" fill="none" xmlns="http://www.w3.org/2000/svg">
<mask id="mask0_74_122" style="mask-type:luminance" maskUnits="userSpaceOnUse" x="0" y="0" width="219" height="183">
<path d="M219 47.349L37.3618 0L0.00022025 135.651L181.639 183L219 47.349Z" fill="white"/>
</mask>
<g mask="url(#mask0_74_122)">
<path fill-rule="evenodd" clip-rule="evenodd" d="M54.867 110.609C56.0148 109.593 57.0398 108.657 58.053 107.569C58.2153 107.4 58.2589 107.337 58.3815 107.158C59.181 103.744 59.1889 95.8552 57.3921 92.7938C52.6903 84.819 49.1798 87.7006 41.1415 87.2054C29.6838 86.5266 31.5202 86.2979 21.5585 90.8355C19.9477 91.5559 18.4951 92.0965 16.8606 92.6625L16.1008 92.9232C14.0427 93.5901 12.3844 93.406 12.3408 90.8386C13.7102 84.6576 23.3157 84.469 25.9872 74.1119C27.2576 69.22 23.9648 70.5703 21.9503 66.3107C21.2379 64.1772 22.5043 63.0059 24.875 63.9835C25.7101 64.3751 29.9252 66.9006 30.4872 66.4389C31.3381 65.7058 29.9172 60.2117 31.8526 59.7608L32.6126 59.7847C33.879 60.1894 34.0255 60.4389 34.8605 61.5744C39.2458 67.8293 38.474 68.2728 47.4186 67.5532C54.2497 67.0253 69.7443 70.3574 75.1308 68.1635C76.4408 67.6125 79.4012 62.7395 79.4962 61.2382C79.5952 59.5887 79.3063 57.3544 79.1638 55.6429C79.0055 53.7158 78.8828 51.8099 78.7126 49.9178C78.4237 47.8201 77.8221 45.5661 77.268 43.4989C73.7812 47.3546 70.4924 51.2858 67.1085 55.2043C64.8763 57.7868 62.6084 60.3834 60.3763 62.9659C58.0055 63.9851 55.615 65.0247 53.2443 66.0439C55.0055 63.3024 56.7866 60.5409 58.5241 57.7556C61.7417 54.0785 64.9594 50.4133 68.1058 46.7182C71.5451 42.6029 76.5161 36.2687 78.1071 31.2863C81.0398 22.2126 72.3327 23.355 76.8762 16.3015C79.6902 12.0222 83.4896 10.5321 87.673 14.0044C93.1862 18.5305 85.7061 24.5709 89.3037 26.7487C91.7021 28.2676 93.665 27.7124 97.2389 30.492C100.65 33.193 103.829 36.7507 107.466 39.6966C109.128 41.0235 126.095 53.3238 125.711 53.5094C124.931 53.9765 118.235 53.6195 116.933 53.107C113.22 51.6424 100.556 37.758 97.6505 39.1349C96.3563 39.7532 94.4527 49.1693 94.5635 50.6247C94.6545 52.0012 95.2838 60.229 98.359 57.4452C102.174 53.9614 104.114 50.063 108.059 56.0664C110.363 59.5079 110.889 59.819 107.632 63.1261C103.761 67.0915 99.954 65.1687 97.3616 68.6494C96.1347 70.8853 99.5898 70.4329 100.943 70.3274C106.005 69.91 107.28 69.498 112.575 69.9477C119.082 70.5022 124.425 71.1506 131.03 71.0609C138.649 70.95 141.439 71.3185 148.429 74.145L149.375 74.5035C151.029 75.7167 153.059 77.5229 154.678 78.8632C165.344 87.6482 176.042 96.442 186.922 104.998C192 109.025 188.933 107.792 184.947 106.009C174.245 101.296 163.504 91.3619 154.536 83.8752C153.95 83.3628 150.993 80.7187 150.376 80.8685C149.066 82.2015 148.65 88.061 148.896 90.0358C149.181 91.8832 150.301 98.6021 151.737 99.547C154.092 101.08 159.574 103.228 162.479 104.766L162.954 105.027C164.671 106.009 166.013 106.929 167.517 108.139C176.28 115.683 184.104 124.535 194.315 130.298L195.19 130.774C196.413 131.478 195.783 131.636 194.588 132.317C189.032 135.31 187.191 133.056 183.146 129.223C179.964 126.186 166.017 112.004 163.354 111.173C162.182 110.831 149.648 108.841 149.232 109.799C148.555 111.323 165.103 128.713 165.617 134.852C165.736 136.409 162.02 136.47 161.28 135.929C158.731 134.16 143.735 112.212 138.419 107.242C134.102 103.238 127.813 102.554 122.3 101.091C121.132 100.749 115.354 98.9952 114.439 99.1546C111.562 99.6455 105.625 101.757 102.4 102.728C98.1849 104.011 85.8089 107.174 83.4065 110.382C81.1427 113.377 79.0648 122.214 77.0939 126.502C75.3722 130.247 68.185 141.76 64.3974 142.831C62.5571 143.345 59.6006 142.785 61.4607 139.969C64.0254 136.023 67.338 133.301 69.9976 128.659C71.2601 126.432 77.7153 113.873 74.4224 112.444C72.685 111.669 62.2087 113.738 61.4132 114.809C58.5161 118.532 51.4436 122.905 47.4542 126.653C41.3909 132.281 33.7959 142.485 24.3843 141.88C20.0149 141.596 23.4067 138.995 25.1323 137.596C29.7352 133.895 33.9424 131.444 38.5176 127.202C44.2207 121.865 48.8789 115.971 54.867 110.609Z" fill="white"/>
</g>
</svg>
